<svg width="30" height="30" viewBox="0 0 30 30" fill="none" xmlns="http://www.w3.org/2000/svg">
<path d="M29.4444 21.9711V6.91345C29.4444 5.5248 28.3278 4.40384 26.9444 4.40384H3.59442C2.21109 4.40384 1.09442 5.5248 1.09442 6.91345V21.9711C1.09442 23.3598 2.21109 24.4808 3.59442 24.4808H26.9444C28.3278 24.4808 29.4444 23.3598 29.4444 21.9711ZM27.2611 6.72942C27.8111 7.28153 27.5111 7.85038 27.2111 8.1348L20.4444 14.3586L26.9444 21.1513C27.1444 21.3856 27.2778 21.7536 27.0444 22.0046C26.8278 22.2723 26.3278 22.2556 26.1111 22.0883L18.8278 15.8477L15.2611 19.1102L11.7111 15.8477L4.42775 22.0883C4.21109 22.2556 3.71109 22.2723 3.49442 22.0046C3.26109 21.7536 3.39442 21.3856 3.59442 21.1513L10.0944 14.3586L3.32775 8.1348C3.02775 7.85038 2.72775 7.28153 3.27775 6.72942C3.82775 6.1773 4.39442 6.44499 4.86109 6.84653L15.2611 15.2788L25.6778 6.84653C26.1444 6.44499 26.7111 6.1773 27.2611 6.72942Z" fill="white"/>
</svg>
