<svg width="30" height="30" viewBox="0 0 30 30" fill="none" xmlns="http://www.w3.org/2000/svg">
<g clip-path="url(#clip0_61_42)">
<path d="M20.605 14.97L28.2938 8.29V21.5738L20.605 14.97ZM10.6975 16.1012L13.3975 18.445C13.8213 18.805 14.3738 19.0225 14.9775 19.0225H14.9987H15.015C15.62 19.0225 16.1725 18.8038 16.6013 18.4413L16.5975 18.4438L19.2975 16.1L27.505 23.1487H2.49375L10.6975 16.1012ZM2.4825 6.70625H27.52L15.4938 17.1512C15.3585 17.2582 15.1912 17.3163 15.0188 17.3162H15.0013H14.985C14.812 17.3165 14.644 17.2578 14.5088 17.15L14.51 17.1512L2.4825 6.70625ZM1.70625 8.28875L9.39375 14.9688L1.70625 21.5687V8.28875ZM28.7063 5.2375C28.4063 5.0875 28.0537 5 27.68 5H2.32375C1.96145 5.00009 1.60413 5.08439 1.28 5.24625L1.29375 5.24C0.905717 5.43139 0.578935 5.72747 0.350318 6.09481C0.121701 6.46214 0.000359185 6.88608 0 7.31875L0 22.5338C0.000661755 23.1495 0.245566 23.7399 0.680975 24.1753C1.11639 24.6107 1.70674 24.8556 2.3225 24.8563H27.6763C28.292 24.8556 28.8824 24.6107 29.3178 24.1753C29.7532 23.7399 29.9981 23.1495 29.9988 22.5338V7.31875C29.9988 6.41 29.475 5.6225 28.7125 5.24375L28.6987 5.2375H28.7063Z" fill="white"/>
</g>
<defs>
<clipPath id="clip0_61_42">
<rect width="30" height="30" fill="white"/>
</clipPath>
</defs>
</svg>
