<svg width="34" height="30" viewBox="0 0 34 30" fill="none" xmlns="http://www.w3.org/2000/svg">
<path d="M23.9062 7.25278C23.9062 10.452 19.623 16.1532 17.7422 18.5028C17.291 19.0653 16.4531 19.0653 16.0078 18.5028C14.127 16.1532 9.84375 10.452 9.84375 7.25278C9.84375 3.36801 12.9902 0.221527 16.875 0.221527C20.7598 0.221527 23.9062 3.36801 23.9062 7.25278ZM24.375 11.9637C24.5801 11.5594 24.7676 11.1551 24.9375 10.7567C24.9668 10.6864 24.9961 10.6102 25.0254 10.5399L31.8223 7.82114C32.748 7.452 33.75 8.13168 33.75 9.12778V24.995C33.75 25.5692 33.3984 26.0848 32.8652 26.3016L24.375 29.6942V11.9637ZM8.0625 8.32504C8.20313 9.15121 8.48437 9.98325 8.8125 10.7567C8.98242 11.1551 9.16992 11.5594 9.375 11.9637V26.6942L1.92773 29.6766C1.00195 30.0457 0 29.3661 0 28.37V12.5028C0 11.9286 0.351562 11.4129 0.884766 11.1961L8.06836 8.32504H8.0625ZM19.207 19.6747C20.0215 18.6551 21.2988 16.9969 22.5 15.1629V29.7704L11.25 26.5536V15.1629C12.4512 16.9969 13.7285 18.6551 14.543 19.6747C15.7441 21.1747 18.0059 21.1747 19.207 19.6747ZM16.875 9.12778C17.4966 9.12778 18.0927 8.88085 18.5323 8.44131C18.9718 8.00177 19.2188 7.40563 19.2188 6.78403C19.2188 6.16243 18.9718 5.56628 18.5323 5.12675C18.0927 4.68721 17.4966 4.44028 16.875 4.44028C16.2534 4.44028 15.6573 4.68721 15.2177 5.12675C14.7782 5.56628 14.5312 6.16243 14.5312 6.78403C14.5312 7.40563 14.7782 8.00177 15.2177 8.44131C15.6573 8.88085 16.2534 9.12778 16.875 9.12778Z" fill="white"/>
</svg>
